<mxfile host="app.diagrams.net" modified="2023-10-26T17:27:17.935Z" agent="Mozilla/5.0 (Windows NT 10.0; Win64; x64) AppleWebKit/537.36 (KHTML, like Gecko) Chrome/118.0.0.0 Safari/537.36" etag="eFUVAVpxEtQiPMYit3c0" version="22.0.8" type="github">
  <diagram name="1 oldal" id="inNYs5YzTZjKEzxzt32p">
    <mxGraphModel dx="819" dy="446" grid="1" gridSize="10" guides="1" tooltips="1" connect="1" arrows="1" fold="1" page="1" pageScale="1" pageWidth="827" pageHeight="1169" math="0" shadow="0">
      <root>
        <mxCell id="0" />
        <mxCell id="1" parent="0" />
        <mxCell id="H4Sd22goury7XWFfZhdw-1" value="kezdőpont" style="rounded=0;whiteSpace=wrap;html=1;" parent="1" vertex="1">
          <mxGeometry x="354" y="34" width="94" height="40" as="geometry" />
        </mxCell>
        <mxCell id="H4Sd22goury7XWFfZhdw-6" value="virágok felé haladsz(jobbra)" style="rounded=0;whiteSpace=wrap;html=1;" parent="1" vertex="1">
          <mxGeometry x="185" y="138" width="94" height="40" as="geometry" />
        </mxCell>
        <mxCell id="H4Sd22goury7XWFfZhdw-7" value="Magdi jósnő felé haladsz (balra)" style="rounded=0;whiteSpace=wrap;html=1;" parent="1" vertex="1">
          <mxGeometry x="519" y="138" width="94" height="40" as="geometry" />
        </mxCell>
        <mxCell id="H4Sd22goury7XWFfZhdw-9" value="egyenesen" style="rounded=0;whiteSpace=wrap;html=1;" parent="1" vertex="1">
          <mxGeometry x="354" y="138" width="94" height="22" as="geometry" />
        </mxCell>
        <mxCell id="H4Sd22goury7XWFfZhdw-10" value="" style="endArrow=none;html=1;rounded=0;entryX=0.5;entryY=1;entryDx=0;entryDy=0;" parent="1" edge="1">
          <mxGeometry width="50" height="50" relative="1" as="geometry">
            <mxPoint x="400" y="120" as="sourcePoint" />
            <mxPoint x="400" y="74" as="targetPoint" />
          </mxGeometry>
        </mxCell>
        <mxCell id="H4Sd22goury7XWFfZhdw-11" value="" style="endArrow=none;html=1;rounded=0;" parent="1" edge="1">
          <mxGeometry width="50" height="50" relative="1" as="geometry">
            <mxPoint x="230" y="120" as="sourcePoint" />
            <mxPoint x="400" y="120" as="targetPoint" />
          </mxGeometry>
        </mxCell>
        <mxCell id="H4Sd22goury7XWFfZhdw-12" value="" style="endArrow=none;html=1;rounded=0;" parent="1" edge="1">
          <mxGeometry width="50" height="50" relative="1" as="geometry">
            <mxPoint x="400" y="120" as="sourcePoint" />
            <mxPoint x="570" y="120" as="targetPoint" />
          </mxGeometry>
        </mxCell>
        <mxCell id="H4Sd22goury7XWFfZhdw-13" value="" style="endArrow=none;html=1;rounded=0;" parent="1" edge="1">
          <mxGeometry width="50" height="50" relative="1" as="geometry">
            <mxPoint x="230" y="134" as="sourcePoint" />
            <mxPoint x="230" y="119" as="targetPoint" />
          </mxGeometry>
        </mxCell>
        <mxCell id="H4Sd22goury7XWFfZhdw-14" value="" style="endArrow=none;html=1;rounded=0;" parent="1" edge="1">
          <mxGeometry width="50" height="50" relative="1" as="geometry">
            <mxPoint x="400" y="134" as="sourcePoint" />
            <mxPoint x="400" y="119" as="targetPoint" />
          </mxGeometry>
        </mxCell>
        <mxCell id="H4Sd22goury7XWFfZhdw-16" value="" style="endArrow=none;html=1;rounded=0;" parent="1" edge="1">
          <mxGeometry width="50" height="50" relative="1" as="geometry">
            <mxPoint x="569" y="135" as="sourcePoint" />
            <mxPoint x="569" y="120" as="targetPoint" />
          </mxGeometry>
        </mxCell>
        <mxCell id="H4Sd22goury7XWFfZhdw-17" value="" style="endArrow=none;html=1;rounded=0;" parent="1" edge="1">
          <mxGeometry width="50" height="50" relative="1" as="geometry">
            <mxPoint x="400" y="170" as="sourcePoint" />
            <mxPoint x="400" y="160" as="targetPoint" />
          </mxGeometry>
        </mxCell>
        <mxCell id="H4Sd22goury7XWFfZhdw-24" value="szökőkút" style="rounded=0;whiteSpace=wrap;html=1;" parent="1" vertex="1">
          <mxGeometry x="354" y="220" width="94" height="20" as="geometry" />
        </mxCell>
        <mxCell id="H4Sd22goury7XWFfZhdw-25" value="" style="endArrow=none;html=1;rounded=0;" parent="1" edge="1">
          <mxGeometry width="50" height="50" relative="1" as="geometry">
            <mxPoint x="400.83" y="259" as="sourcePoint" />
            <mxPoint x="400.83" y="240" as="targetPoint" />
          </mxGeometry>
        </mxCell>
        <mxCell id="H4Sd22goury7XWFfZhdw-27" value="" style="endArrow=none;html=1;rounded=0;" parent="1" edge="1">
          <mxGeometry width="50" height="50" relative="1" as="geometry">
            <mxPoint x="571" y="200" as="sourcePoint" />
            <mxPoint x="571" y="181" as="targetPoint" />
          </mxGeometry>
        </mxCell>
        <mxCell id="H4Sd22goury7XWFfZhdw-28" value="&lt;p style=&quot;line-height: 60%;&quot;&gt;&lt;font style=&quot;font-size: 8px;&quot;&gt;elfogadod&lt;br&gt;a meghívást&lt;br&gt;&lt;/font&gt;&lt;/p&gt;" style="rounded=0;whiteSpace=wrap;html=1;" parent="1" vertex="1">
          <mxGeometry x="510" y="210" width="50" height="20" as="geometry" />
        </mxCell>
        <mxCell id="H4Sd22goury7XWFfZhdw-30" value="&lt;p style=&quot;line-height: 60%;&quot;&gt;&lt;span style=&quot;font-size: 8px;&quot;&gt;elutasítod&lt;br&gt;a meghívást&lt;br&gt;&lt;/span&gt;&lt;/p&gt;" style="rounded=0;whiteSpace=wrap;html=1;" parent="1" vertex="1">
          <mxGeometry x="580" y="210" width="50" height="20" as="geometry" />
        </mxCell>
        <mxCell id="H4Sd22goury7XWFfZhdw-31" value="" style="endArrow=none;html=1;rounded=0;" parent="1" edge="1">
          <mxGeometry width="50" height="50" relative="1" as="geometry">
            <mxPoint x="540" y="200" as="sourcePoint" />
            <mxPoint x="600" y="200" as="targetPoint" />
          </mxGeometry>
        </mxCell>
        <mxCell id="H4Sd22goury7XWFfZhdw-33" value="" style="endArrow=none;html=1;rounded=0;exitX=0.6;exitY=0.02;exitDx=0;exitDy=0;exitPerimeter=0;" parent="1" source="H4Sd22goury7XWFfZhdw-28" edge="1">
          <mxGeometry width="50" height="50" relative="1" as="geometry">
            <mxPoint x="490" y="250" as="sourcePoint" />
            <mxPoint x="540" y="200" as="targetPoint" />
          </mxGeometry>
        </mxCell>
        <mxCell id="H4Sd22goury7XWFfZhdw-34" value="" style="endArrow=none;html=1;rounded=0;exitX=0.6;exitY=0.02;exitDx=0;exitDy=0;exitPerimeter=0;" parent="1" edge="1">
          <mxGeometry width="50" height="50" relative="1" as="geometry">
            <mxPoint x="600" y="210" as="sourcePoint" />
            <mxPoint x="600" y="200" as="targetPoint" />
          </mxGeometry>
        </mxCell>
        <mxCell id="H4Sd22goury7XWFfZhdw-35" value="" style="endArrow=none;html=1;rounded=0;" parent="1" edge="1">
          <mxGeometry width="50" height="50" relative="1" as="geometry">
            <mxPoint x="535.88" y="249" as="sourcePoint" />
            <mxPoint x="535.88" y="230" as="targetPoint" />
          </mxGeometry>
        </mxCell>
        <mxCell id="H4Sd22goury7XWFfZhdw-36" value="" style="endArrow=none;html=1;rounded=0;" parent="1" edge="1">
          <mxGeometry width="50" height="50" relative="1" as="geometry">
            <mxPoint x="504.88" y="249" as="sourcePoint" />
            <mxPoint x="564.88" y="249" as="targetPoint" />
          </mxGeometry>
        </mxCell>
        <mxCell id="H4Sd22goury7XWFfZhdw-37" value="" style="endArrow=none;html=1;rounded=0;exitX=0.6;exitY=0.02;exitDx=0;exitDy=0;exitPerimeter=0;" parent="1" edge="1">
          <mxGeometry width="50" height="50" relative="1" as="geometry">
            <mxPoint x="504.88" y="259" as="sourcePoint" />
            <mxPoint x="504.88" y="249" as="targetPoint" />
          </mxGeometry>
        </mxCell>
        <mxCell id="H4Sd22goury7XWFfZhdw-38" value="" style="endArrow=none;html=1;rounded=0;exitX=0.6;exitY=0.02;exitDx=0;exitDy=0;exitPerimeter=0;" parent="1" edge="1">
          <mxGeometry width="50" height="50" relative="1" as="geometry">
            <mxPoint x="564.88" y="259" as="sourcePoint" />
            <mxPoint x="564.88" y="249" as="targetPoint" />
          </mxGeometry>
        </mxCell>
        <mxCell id="H4Sd22goury7XWFfZhdw-39" value="" style="endArrow=none;html=1;rounded=0;" parent="1" edge="1">
          <mxGeometry width="50" height="50" relative="1" as="geometry">
            <mxPoint x="605.88" y="249" as="sourcePoint" />
            <mxPoint x="605.88" y="230" as="targetPoint" />
          </mxGeometry>
        </mxCell>
        <mxCell id="H4Sd22goury7XWFfZhdw-40" value="" style="endArrow=none;html=1;rounded=0;" parent="1" edge="1">
          <mxGeometry width="50" height="50" relative="1" as="geometry">
            <mxPoint x="574.88" y="249" as="sourcePoint" />
            <mxPoint x="634.88" y="249" as="targetPoint" />
          </mxGeometry>
        </mxCell>
        <mxCell id="H4Sd22goury7XWFfZhdw-41" value="" style="endArrow=none;html=1;rounded=0;exitX=0.6;exitY=0.02;exitDx=0;exitDy=0;exitPerimeter=0;" parent="1" edge="1">
          <mxGeometry width="50" height="50" relative="1" as="geometry">
            <mxPoint x="574.88" y="259" as="sourcePoint" />
            <mxPoint x="574.88" y="249" as="targetPoint" />
          </mxGeometry>
        </mxCell>
        <mxCell id="H4Sd22goury7XWFfZhdw-42" value="" style="endArrow=none;html=1;rounded=0;exitX=0.6;exitY=0.02;exitDx=0;exitDy=0;exitPerimeter=0;" parent="1" edge="1">
          <mxGeometry width="50" height="50" relative="1" as="geometry">
            <mxPoint x="634.88" y="259" as="sourcePoint" />
            <mxPoint x="634.88" y="249" as="targetPoint" />
          </mxGeometry>
        </mxCell>
        <mxCell id="H4Sd22goury7XWFfZhdw-43" value="&lt;p style=&quot;line-height: 60%;&quot;&gt;&lt;font style=&quot;font-size: 6px;&quot;&gt;átver&lt;/font&gt;&lt;/p&gt;" style="rounded=0;whiteSpace=wrap;html=1;" parent="1" vertex="1">
          <mxGeometry x="478" y="259" width="40" height="10" as="geometry" />
        </mxCell>
        <mxCell id="H4Sd22goury7XWFfZhdw-44" value="&lt;p style=&quot;line-height: 91%;&quot;&gt;&lt;span style=&quot;font-size: 7px;&quot;&gt;nem ver át&lt;/span&gt;&lt;/p&gt;" style="rounded=0;whiteSpace=wrap;html=1;" parent="1" vertex="1">
          <mxGeometry x="527" y="259" width="40" height="10" as="geometry" />
        </mxCell>
        <mxCell id="H4Sd22goury7XWFfZhdw-45" value="&lt;p style=&quot;line-height: 91%;&quot;&gt;&lt;span style=&quot;font-size: 7px;&quot;&gt;elátkoz&lt;/span&gt;&lt;/p&gt;" style="rounded=0;whiteSpace=wrap;html=1;" parent="1" vertex="1">
          <mxGeometry x="572" y="259" width="40" height="10" as="geometry" />
        </mxCell>
        <mxCell id="H4Sd22goury7XWFfZhdw-46" value="&lt;p style=&quot;line-height: 91%;&quot;&gt;&lt;span style=&quot;font-size: 7px;&quot;&gt;elenged&lt;/span&gt;&lt;/p&gt;" style="rounded=0;whiteSpace=wrap;html=1;" parent="1" vertex="1">
          <mxGeometry x="623" y="259" width="40" height="10" as="geometry" />
        </mxCell>
        <mxCell id="H4Sd22goury7XWFfZhdw-47" value="" style="endArrow=none;html=1;rounded=0;" parent="1" edge="1">
          <mxGeometry width="50" height="50" relative="1" as="geometry">
            <mxPoint x="498" y="282" as="sourcePoint" />
            <mxPoint x="498" y="269" as="targetPoint" />
          </mxGeometry>
        </mxCell>
        <mxCell id="H4Sd22goury7XWFfZhdw-48" value="" style="endArrow=none;html=1;rounded=0;" parent="1" edge="1">
          <mxGeometry width="50" height="50" relative="1" as="geometry">
            <mxPoint x="546" y="282" as="sourcePoint" />
            <mxPoint x="546" y="269" as="targetPoint" />
          </mxGeometry>
        </mxCell>
        <mxCell id="H4Sd22goury7XWFfZhdw-49" value="" style="endArrow=none;html=1;rounded=0;" parent="1" edge="1">
          <mxGeometry width="50" height="50" relative="1" as="geometry">
            <mxPoint x="591" y="282" as="sourcePoint" />
            <mxPoint x="591" y="269" as="targetPoint" />
          </mxGeometry>
        </mxCell>
        <mxCell id="H4Sd22goury7XWFfZhdw-50" value="" style="endArrow=none;html=1;rounded=0;" parent="1" edge="1">
          <mxGeometry width="50" height="50" relative="1" as="geometry">
            <mxPoint x="644" y="282" as="sourcePoint" />
            <mxPoint x="644" y="269" as="targetPoint" />
          </mxGeometry>
        </mxCell>
        <mxCell id="H4Sd22goury7XWFfZhdw-51" value="" style="endArrow=none;html=1;rounded=0;" parent="1" edge="1">
          <mxGeometry width="50" height="50" relative="1" as="geometry">
            <mxPoint x="498" y="282" as="sourcePoint" />
            <mxPoint x="644" y="281" as="targetPoint" />
          </mxGeometry>
        </mxCell>
        <mxCell id="H4Sd22goury7XWFfZhdw-54" value="" style="endArrow=none;html=1;rounded=0;" parent="1" edge="1">
          <mxGeometry width="50" height="50" relative="1" as="geometry">
            <mxPoint x="231" y="201" as="sourcePoint" />
            <mxPoint x="231" y="182" as="targetPoint" />
          </mxGeometry>
        </mxCell>
        <mxCell id="H4Sd22goury7XWFfZhdw-55" value="&lt;p style=&quot;line-height: 60%;&quot;&gt;&lt;font style=&quot;font-size: 8px;&quot;&gt;varázspóni&lt;/font&gt;&lt;/p&gt;" style="rounded=0;whiteSpace=wrap;html=1;" parent="1" vertex="1">
          <mxGeometry x="170" y="211" width="50" height="20" as="geometry" />
        </mxCell>
        <mxCell id="H4Sd22goury7XWFfZhdw-56" value="&lt;p style=&quot;line-height: 60%;&quot;&gt;&lt;span style=&quot;font-size: 8px;&quot;&gt;erős szél&lt;/span&gt;&lt;/p&gt;" style="rounded=0;whiteSpace=wrap;html=1;" parent="1" vertex="1">
          <mxGeometry x="240" y="211" width="50" height="20" as="geometry" />
        </mxCell>
        <mxCell id="H4Sd22goury7XWFfZhdw-57" value="" style="endArrow=none;html=1;rounded=0;" parent="1" edge="1">
          <mxGeometry width="50" height="50" relative="1" as="geometry">
            <mxPoint x="200" y="201" as="sourcePoint" />
            <mxPoint x="260" y="201" as="targetPoint" />
          </mxGeometry>
        </mxCell>
        <mxCell id="H4Sd22goury7XWFfZhdw-58" value="" style="endArrow=none;html=1;rounded=0;exitX=0.6;exitY=0.02;exitDx=0;exitDy=0;exitPerimeter=0;" parent="1" source="H4Sd22goury7XWFfZhdw-55" edge="1">
          <mxGeometry width="50" height="50" relative="1" as="geometry">
            <mxPoint x="150" y="251" as="sourcePoint" />
            <mxPoint x="200" y="201" as="targetPoint" />
          </mxGeometry>
        </mxCell>
        <mxCell id="H4Sd22goury7XWFfZhdw-59" value="" style="endArrow=none;html=1;rounded=0;exitX=0.6;exitY=0.02;exitDx=0;exitDy=0;exitPerimeter=0;" parent="1" edge="1">
          <mxGeometry width="50" height="50" relative="1" as="geometry">
            <mxPoint x="260" y="211" as="sourcePoint" />
            <mxPoint x="260" y="201" as="targetPoint" />
          </mxGeometry>
        </mxCell>
        <mxCell id="H4Sd22goury7XWFfZhdw-60" value="" style="endArrow=none;html=1;rounded=0;" parent="1" edge="1">
          <mxGeometry width="50" height="50" relative="1" as="geometry">
            <mxPoint x="189.88" y="250" as="sourcePoint" />
            <mxPoint x="189.88" y="231" as="targetPoint" />
          </mxGeometry>
        </mxCell>
        <mxCell id="H4Sd22goury7XWFfZhdw-61" value="" style="endArrow=none;html=1;rounded=0;" parent="1" edge="1">
          <mxGeometry width="50" height="50" relative="1" as="geometry">
            <mxPoint x="158.88" y="250" as="sourcePoint" />
            <mxPoint x="218.88" y="250" as="targetPoint" />
          </mxGeometry>
        </mxCell>
        <mxCell id="H4Sd22goury7XWFfZhdw-62" value="" style="endArrow=none;html=1;rounded=0;exitX=0.6;exitY=0.02;exitDx=0;exitDy=0;exitPerimeter=0;" parent="1" edge="1">
          <mxGeometry width="50" height="50" relative="1" as="geometry">
            <mxPoint x="158.88" y="260" as="sourcePoint" />
            <mxPoint x="158.88" y="250" as="targetPoint" />
          </mxGeometry>
        </mxCell>
        <mxCell id="H4Sd22goury7XWFfZhdw-63" value="" style="endArrow=none;html=1;rounded=0;exitX=0.6;exitY=0.02;exitDx=0;exitDy=0;exitPerimeter=0;" parent="1" edge="1">
          <mxGeometry width="50" height="50" relative="1" as="geometry">
            <mxPoint x="218.88" y="260" as="sourcePoint" />
            <mxPoint x="218.88" y="250" as="targetPoint" />
          </mxGeometry>
        </mxCell>
        <mxCell id="H4Sd22goury7XWFfZhdw-64" value="" style="endArrow=none;html=1;rounded=0;" parent="1" edge="1">
          <mxGeometry width="50" height="50" relative="1" as="geometry">
            <mxPoint x="259.88" y="250" as="sourcePoint" />
            <mxPoint x="259.88" y="231" as="targetPoint" />
          </mxGeometry>
        </mxCell>
        <mxCell id="H4Sd22goury7XWFfZhdw-65" value="" style="endArrow=none;html=1;rounded=0;" parent="1" edge="1">
          <mxGeometry width="50" height="50" relative="1" as="geometry">
            <mxPoint x="228.88" y="250" as="sourcePoint" />
            <mxPoint x="288.88" y="250" as="targetPoint" />
          </mxGeometry>
        </mxCell>
        <mxCell id="H4Sd22goury7XWFfZhdw-66" value="" style="endArrow=none;html=1;rounded=0;exitX=0.6;exitY=0.02;exitDx=0;exitDy=0;exitPerimeter=0;" parent="1" edge="1">
          <mxGeometry width="50" height="50" relative="1" as="geometry">
            <mxPoint x="228.88" y="260" as="sourcePoint" />
            <mxPoint x="228.88" y="250" as="targetPoint" />
          </mxGeometry>
        </mxCell>
        <mxCell id="H4Sd22goury7XWFfZhdw-67" value="" style="endArrow=none;html=1;rounded=0;exitX=0.6;exitY=0.02;exitDx=0;exitDy=0;exitPerimeter=0;" parent="1" edge="1">
          <mxGeometry width="50" height="50" relative="1" as="geometry">
            <mxPoint x="288.88" y="260" as="sourcePoint" />
            <mxPoint x="288.88" y="250" as="targetPoint" />
          </mxGeometry>
        </mxCell>
        <mxCell id="H4Sd22goury7XWFfZhdw-68" value="&lt;p style=&quot;line-height: 60%;&quot;&gt;&lt;font style=&quot;font-size: 6px;&quot;&gt;varázsország&lt;/font&gt;&lt;/p&gt;" style="rounded=0;whiteSpace=wrap;html=1;fillColor=#f8cecc;strokeColor=#b85450;" parent="1" vertex="1">
          <mxGeometry x="132" y="260" width="40" height="10" as="geometry" />
        </mxCell>
        <mxCell id="H4Sd22goury7XWFfZhdw-69" value="&lt;p style=&quot;line-height: 91%;&quot;&gt;&lt;span style=&quot;font-size: 7px;&quot;&gt;elvarázsol&lt;/span&gt;&lt;/p&gt;" style="rounded=0;whiteSpace=wrap;html=1;" parent="1" vertex="1">
          <mxGeometry x="181" y="260" width="40" height="10" as="geometry" />
        </mxCell>
        <mxCell id="H4Sd22goury7XWFfZhdw-70" value="&lt;p style=&quot;line-height: 91%;&quot;&gt;&lt;span style=&quot;font-size: 7px;&quot;&gt;elesel&lt;/span&gt;&lt;/p&gt;" style="rounded=0;whiteSpace=wrap;html=1;" parent="1" vertex="1">
          <mxGeometry x="226" y="260" width="40" height="10" as="geometry" />
        </mxCell>
        <mxCell id="H4Sd22goury7XWFfZhdw-71" value="&lt;p style=&quot;line-height: 91%;&quot;&gt;&lt;span style=&quot;font-size: 7px;&quot;&gt;kastély-jegy&lt;/span&gt;&lt;/p&gt;" style="rounded=0;whiteSpace=wrap;html=1;" parent="1" vertex="1">
          <mxGeometry x="277" y="260" width="40" height="10" as="geometry" />
        </mxCell>
        <mxCell id="H4Sd22goury7XWFfZhdw-73" value="" style="endArrow=none;html=1;rounded=0;" parent="1" edge="1">
          <mxGeometry width="50" height="50" relative="1" as="geometry">
            <mxPoint x="200" y="283" as="sourcePoint" />
            <mxPoint x="200" y="270" as="targetPoint" />
          </mxGeometry>
        </mxCell>
        <mxCell id="H4Sd22goury7XWFfZhdw-74" value="" style="endArrow=none;html=1;rounded=0;" parent="1" edge="1">
          <mxGeometry width="50" height="50" relative="1" as="geometry">
            <mxPoint x="245" y="283" as="sourcePoint" />
            <mxPoint x="245" y="270" as="targetPoint" />
          </mxGeometry>
        </mxCell>
        <mxCell id="H4Sd22goury7XWFfZhdw-75" value="" style="endArrow=none;html=1;rounded=0;" parent="1" edge="1">
          <mxGeometry width="50" height="50" relative="1" as="geometry">
            <mxPoint x="298" y="283" as="sourcePoint" />
            <mxPoint x="298" y="270" as="targetPoint" />
          </mxGeometry>
        </mxCell>
        <mxCell id="H4Sd22goury7XWFfZhdw-76" value="" style="endArrow=none;html=1;rounded=0;" parent="1" edge="1">
          <mxGeometry width="50" height="50" relative="1" as="geometry">
            <mxPoint x="199" y="283" as="sourcePoint" />
            <mxPoint x="299" y="283" as="targetPoint" />
          </mxGeometry>
        </mxCell>
        <mxCell id="H4Sd22goury7XWFfZhdw-84" value="&lt;p style=&quot;line-height: 60%;&quot;&gt;&lt;span style=&quot;font-size: 8px;&quot;&gt;jobbra mész&lt;/span&gt;&lt;/p&gt;" style="rounded=0;whiteSpace=wrap;html=1;" parent="1" vertex="1">
          <mxGeometry x="341" y="270" width="50" height="20" as="geometry" />
        </mxCell>
        <mxCell id="H4Sd22goury7XWFfZhdw-85" value="&lt;p style=&quot;line-height: 60%;&quot;&gt;&lt;span style=&quot;font-size: 8px;&quot;&gt;&amp;nbsp;balra mész&lt;/span&gt;&lt;/p&gt;" style="rounded=0;whiteSpace=wrap;html=1;" parent="1" vertex="1">
          <mxGeometry x="411" y="270" width="50" height="20" as="geometry" />
        </mxCell>
        <mxCell id="H4Sd22goury7XWFfZhdw-86" value="" style="endArrow=none;html=1;rounded=0;" parent="1" edge="1">
          <mxGeometry width="50" height="50" relative="1" as="geometry">
            <mxPoint x="371" y="260" as="sourcePoint" />
            <mxPoint x="431" y="260" as="targetPoint" />
          </mxGeometry>
        </mxCell>
        <mxCell id="H4Sd22goury7XWFfZhdw-87" value="" style="endArrow=none;html=1;rounded=0;exitX=0.6;exitY=0.02;exitDx=0;exitDy=0;exitPerimeter=0;" parent="1" source="H4Sd22goury7XWFfZhdw-84" edge="1">
          <mxGeometry width="50" height="50" relative="1" as="geometry">
            <mxPoint x="321" y="310" as="sourcePoint" />
            <mxPoint x="371" y="260" as="targetPoint" />
          </mxGeometry>
        </mxCell>
        <mxCell id="H4Sd22goury7XWFfZhdw-88" value="" style="endArrow=none;html=1;rounded=0;exitX=0.6;exitY=0.02;exitDx=0;exitDy=0;exitPerimeter=0;" parent="1" edge="1">
          <mxGeometry width="50" height="50" relative="1" as="geometry">
            <mxPoint x="431" y="270" as="sourcePoint" />
            <mxPoint x="431" y="260" as="targetPoint" />
          </mxGeometry>
        </mxCell>
        <mxCell id="H4Sd22goury7XWFfZhdw-90" value="" style="endArrow=none;html=1;rounded=0;" parent="1" edge="1">
          <mxGeometry width="50" height="50" relative="1" as="geometry">
            <mxPoint x="372" y="309" as="sourcePoint" />
            <mxPoint x="372" y="290" as="targetPoint" />
          </mxGeometry>
        </mxCell>
        <mxCell id="H4Sd22goury7XWFfZhdw-91" value="" style="endArrow=none;html=1;rounded=0;" parent="1" edge="1">
          <mxGeometry width="50" height="50" relative="1" as="geometry">
            <mxPoint x="432" y="309" as="sourcePoint" />
            <mxPoint x="432" y="290" as="targetPoint" />
          </mxGeometry>
        </mxCell>
        <mxCell id="H4Sd22goury7XWFfZhdw-92" value="&lt;p style=&quot;line-height: 60%;&quot;&gt;&lt;span style=&quot;font-size: 8px;&quot;&gt;bohóc&lt;/span&gt;&lt;/p&gt;" style="rounded=0;whiteSpace=wrap;html=1;" parent="1" vertex="1">
          <mxGeometry x="411" y="310" width="50" height="20" as="geometry" />
        </mxCell>
        <mxCell id="H4Sd22goury7XWFfZhdw-94" value="&lt;p style=&quot;line-height: 60%;&quot;&gt;&lt;span style=&quot;font-size: 8px;&quot;&gt;fotózkodás&lt;/span&gt;&lt;/p&gt;" style="rounded=0;whiteSpace=wrap;html=1;" parent="1" vertex="1">
          <mxGeometry x="341" y="309" width="50" height="20" as="geometry" />
        </mxCell>
        <mxCell id="H4Sd22goury7XWFfZhdw-102" value="" style="endArrow=none;html=1;rounded=0;" parent="1" edge="1">
          <mxGeometry width="50" height="50" relative="1" as="geometry">
            <mxPoint x="349.8" y="348" as="sourcePoint" />
            <mxPoint x="349.8" y="329" as="targetPoint" />
          </mxGeometry>
        </mxCell>
        <mxCell id="H4Sd22goury7XWFfZhdw-103" value="" style="endArrow=none;html=1;rounded=0;" parent="1" edge="1">
          <mxGeometry width="50" height="50" relative="1" as="geometry">
            <mxPoint x="318.8" y="348" as="sourcePoint" />
            <mxPoint x="378.8" y="348" as="targetPoint" />
          </mxGeometry>
        </mxCell>
        <mxCell id="H4Sd22goury7XWFfZhdw-104" value="" style="endArrow=none;html=1;rounded=0;exitX=0.6;exitY=0.02;exitDx=0;exitDy=0;exitPerimeter=0;" parent="1" edge="1">
          <mxGeometry width="50" height="50" relative="1" as="geometry">
            <mxPoint x="318.8" y="358" as="sourcePoint" />
            <mxPoint x="318.8" y="348" as="targetPoint" />
          </mxGeometry>
        </mxCell>
        <mxCell id="H4Sd22goury7XWFfZhdw-105" value="" style="endArrow=none;html=1;rounded=0;exitX=0.6;exitY=0.02;exitDx=0;exitDy=0;exitPerimeter=0;" parent="1" edge="1">
          <mxGeometry width="50" height="50" relative="1" as="geometry">
            <mxPoint x="378.8" y="358" as="sourcePoint" />
            <mxPoint x="378.8" y="348" as="targetPoint" />
          </mxGeometry>
        </mxCell>
        <mxCell id="H4Sd22goury7XWFfZhdw-106" value="" style="endArrow=none;html=1;rounded=0;exitX=0.6;exitY=0.02;exitDx=0;exitDy=0;exitPerimeter=0;" parent="1" edge="1">
          <mxGeometry width="50" height="50" relative="1" as="geometry">
            <mxPoint x="349.8" y="358" as="sourcePoint" />
            <mxPoint x="349.8" y="348" as="targetPoint" />
          </mxGeometry>
        </mxCell>
        <mxCell id="H4Sd22goury7XWFfZhdw-107" value="&lt;font style=&quot;font-size: 7px;&quot;&gt;Donald&lt;/font&gt;" style="rounded=0;whiteSpace=wrap;html=1;" parent="1" vertex="1">
          <mxGeometry x="300" y="359" width="29" height="10" as="geometry" />
        </mxCell>
        <mxCell id="H4Sd22goury7XWFfZhdw-108" value="&lt;font style=&quot;font-size: 7px;&quot;&gt;Shrek&lt;/font&gt;" style="rounded=0;whiteSpace=wrap;html=1;" parent="1" vertex="1">
          <mxGeometry x="337" y="359" width="26" height="10" as="geometry" />
        </mxCell>
        <mxCell id="H4Sd22goury7XWFfZhdw-109" value="&lt;span style=&quot;font-size: 7px;&quot;&gt;Miki egér&lt;/span&gt;" style="rounded=0;whiteSpace=wrap;html=1;" parent="1" vertex="1">
          <mxGeometry x="372" y="359" width="31" height="10" as="geometry" />
        </mxCell>
        <mxCell id="H4Sd22goury7XWFfZhdw-110" value="" style="endArrow=none;html=1;rounded=0;" parent="1" edge="1">
          <mxGeometry width="50" height="50" relative="1" as="geometry">
            <mxPoint x="452.8" y="348" as="sourcePoint" />
            <mxPoint x="452.8" y="329" as="targetPoint" />
          </mxGeometry>
        </mxCell>
        <mxCell id="H4Sd22goury7XWFfZhdw-111" value="" style="endArrow=none;html=1;rounded=0;" parent="1" edge="1">
          <mxGeometry width="50" height="50" relative="1" as="geometry">
            <mxPoint x="421.8" y="348" as="sourcePoint" />
            <mxPoint x="481.8" y="348" as="targetPoint" />
          </mxGeometry>
        </mxCell>
        <mxCell id="H4Sd22goury7XWFfZhdw-112" value="" style="endArrow=none;html=1;rounded=0;exitX=0.6;exitY=0.02;exitDx=0;exitDy=0;exitPerimeter=0;" parent="1" edge="1">
          <mxGeometry width="50" height="50" relative="1" as="geometry">
            <mxPoint x="421.8" y="358" as="sourcePoint" />
            <mxPoint x="421.8" y="348" as="targetPoint" />
          </mxGeometry>
        </mxCell>
        <mxCell id="H4Sd22goury7XWFfZhdw-113" value="" style="endArrow=none;html=1;rounded=0;exitX=0.6;exitY=0.02;exitDx=0;exitDy=0;exitPerimeter=0;" parent="1" edge="1">
          <mxGeometry width="50" height="50" relative="1" as="geometry">
            <mxPoint x="481.8" y="358" as="sourcePoint" />
            <mxPoint x="481.8" y="348" as="targetPoint" />
          </mxGeometry>
        </mxCell>
        <mxCell id="H4Sd22goury7XWFfZhdw-115" value="&lt;span style=&quot;font-size: 7px;&quot;&gt;gonosz&lt;/span&gt;" style="rounded=0;whiteSpace=wrap;html=1;" parent="1" vertex="1">
          <mxGeometry x="411" y="359" width="29" height="10" as="geometry" />
        </mxCell>
        <mxCell id="H4Sd22goury7XWFfZhdw-117" value="&lt;span style=&quot;font-size: 7px;&quot;&gt;kedves&lt;/span&gt;" style="rounded=0;whiteSpace=wrap;html=1;" parent="1" vertex="1">
          <mxGeometry x="475" y="359" width="31" height="10" as="geometry" />
        </mxCell>
        <mxCell id="H4Sd22goury7XWFfZhdw-119" value="" style="endArrow=none;html=1;rounded=0;" parent="1" edge="1">
          <mxGeometry width="50" height="50" relative="1" as="geometry">
            <mxPoint x="350" y="382" as="sourcePoint" />
            <mxPoint x="350" y="369" as="targetPoint" />
          </mxGeometry>
        </mxCell>
        <mxCell id="H4Sd22goury7XWFfZhdw-120" value="" style="endArrow=none;html=1;rounded=0;" parent="1" edge="1">
          <mxGeometry width="50" height="50" relative="1" as="geometry">
            <mxPoint x="379" y="382" as="sourcePoint" />
            <mxPoint x="379" y="369" as="targetPoint" />
          </mxGeometry>
        </mxCell>
        <mxCell id="H4Sd22goury7XWFfZhdw-121" value="" style="endArrow=none;html=1;rounded=0;" parent="1" edge="1">
          <mxGeometry width="50" height="50" relative="1" as="geometry">
            <mxPoint x="422" y="382" as="sourcePoint" />
            <mxPoint x="422" y="369" as="targetPoint" />
          </mxGeometry>
        </mxCell>
        <mxCell id="H4Sd22goury7XWFfZhdw-122" value="" style="endArrow=none;html=1;rounded=0;" parent="1" edge="1">
          <mxGeometry width="50" height="50" relative="1" as="geometry">
            <mxPoint x="482" y="383" as="sourcePoint" />
            <mxPoint x="482" y="370" as="targetPoint" />
          </mxGeometry>
        </mxCell>
        <mxCell id="H4Sd22goury7XWFfZhdw-123" value="" style="endArrow=none;html=1;rounded=0;" parent="1" edge="1">
          <mxGeometry width="50" height="50" relative="1" as="geometry">
            <mxPoint x="319" y="383" as="sourcePoint" />
            <mxPoint x="482" y="383" as="targetPoint" />
          </mxGeometry>
        </mxCell>
        <mxCell id="H4Sd22goury7XWFfZhdw-124" value="" style="endArrow=none;html=1;rounded=0;" parent="1" edge="1">
          <mxGeometry width="50" height="50" relative="1" as="geometry">
            <mxPoint x="319" y="383" as="sourcePoint" />
            <mxPoint x="319" y="370" as="targetPoint" />
          </mxGeometry>
        </mxCell>
        <mxCell id="H4Sd22goury7XWFfZhdw-126" value="" style="endArrow=none;html=1;rounded=0;" parent="1" edge="1">
          <mxGeometry width="50" height="50" relative="1" as="geometry">
            <mxPoint x="400" y="420" as="sourcePoint" />
            <mxPoint x="400" y="383" as="targetPoint" />
          </mxGeometry>
        </mxCell>
        <mxCell id="H4Sd22goury7XWFfZhdw-127" value="" style="endArrow=none;html=1;rounded=0;" parent="1" edge="1">
          <mxGeometry width="50" height="50" relative="1" as="geometry">
            <mxPoint x="568" y="300" as="sourcePoint" />
            <mxPoint x="568" y="281" as="targetPoint" />
          </mxGeometry>
        </mxCell>
        <mxCell id="H4Sd22goury7XWFfZhdw-128" value="&lt;font style=&quot;font-size: 7px;&quot;&gt;kisgyerek&lt;/font&gt;" style="whiteSpace=wrap;html=1;fontSize=9;" parent="1" vertex="1">
          <mxGeometry x="550" y="300" width="39" height="10" as="geometry" />
        </mxCell>
        <mxCell id="H4Sd22goury7XWFfZhdw-130" value="" style="endArrow=none;html=1;rounded=0;" parent="1" edge="1">
          <mxGeometry width="50" height="50" relative="1" as="geometry">
            <mxPoint x="568" y="320" as="sourcePoint" />
            <mxPoint x="568" y="310" as="targetPoint" />
          </mxGeometry>
        </mxCell>
        <mxCell id="H4Sd22goury7XWFfZhdw-131" value="" style="endArrow=none;html=1;rounded=0;" parent="1" edge="1">
          <mxGeometry width="50" height="50" relative="1" as="geometry">
            <mxPoint x="530" y="320" as="sourcePoint" />
            <mxPoint x="606" y="320" as="targetPoint" />
          </mxGeometry>
        </mxCell>
        <mxCell id="H4Sd22goury7XWFfZhdw-133" value="" style="endArrow=none;html=1;rounded=0;" parent="1" edge="1">
          <mxGeometry width="50" height="50" relative="1" as="geometry">
            <mxPoint x="531" y="330" as="sourcePoint" />
            <mxPoint x="531" y="320" as="targetPoint" />
          </mxGeometry>
        </mxCell>
        <mxCell id="H4Sd22goury7XWFfZhdw-134" value="" style="endArrow=none;html=1;rounded=0;" parent="1" edge="1">
          <mxGeometry width="50" height="50" relative="1" as="geometry">
            <mxPoint x="605" y="330" as="sourcePoint" />
            <mxPoint x="605" y="320" as="targetPoint" />
          </mxGeometry>
        </mxCell>
        <mxCell id="H4Sd22goury7XWFfZhdw-135" value="&lt;font style=&quot;font-size: 7px;&quot;&gt;elesik&lt;/font&gt;" style="whiteSpace=wrap;html=1;fontSize=9;" parent="1" vertex="1">
          <mxGeometry x="518" y="329" width="26" height="10" as="geometry" />
        </mxCell>
        <mxCell id="H4Sd22goury7XWFfZhdw-136" value="&lt;span style=&quot;font-size: 7px;&quot;&gt;nem esik el&lt;/span&gt;" style="whiteSpace=wrap;html=1;fontSize=9;" parent="1" vertex="1">
          <mxGeometry x="592" y="330" width="38" height="10" as="geometry" />
        </mxCell>
        <mxCell id="H4Sd22goury7XWFfZhdw-137" value="" style="endArrow=none;html=1;rounded=0;entryX=0.5;entryY=1;entryDx=0;entryDy=0;" parent="1" target="H4Sd22goury7XWFfZhdw-135" edge="1">
          <mxGeometry width="50" height="50" relative="1" as="geometry">
            <mxPoint x="531" y="349" as="sourcePoint" />
            <mxPoint x="532" y="341" as="targetPoint" />
          </mxGeometry>
        </mxCell>
        <mxCell id="H4Sd22goury7XWFfZhdw-138" value="" style="endArrow=none;html=1;rounded=0;" parent="1" edge="1">
          <mxGeometry width="50" height="50" relative="1" as="geometry">
            <mxPoint x="520" y="350" as="sourcePoint" />
            <mxPoint x="540" y="350" as="targetPoint" />
          </mxGeometry>
        </mxCell>
        <mxCell id="H4Sd22goury7XWFfZhdw-139" value="" style="endArrow=none;html=1;rounded=0;exitX=0.389;exitY=-0.196;exitDx=0;exitDy=0;exitPerimeter=0;" parent="1" source="H4Sd22goury7XWFfZhdw-141" edge="1">
          <mxGeometry width="50" height="50" relative="1" as="geometry">
            <mxPoint x="530" y="370" as="sourcePoint" />
            <mxPoint x="520" y="350" as="targetPoint" />
          </mxGeometry>
        </mxCell>
        <mxCell id="H4Sd22goury7XWFfZhdw-140" value="" style="endArrow=none;html=1;rounded=0;exitX=0.062;exitY=-0.084;exitDx=0;exitDy=0;exitPerimeter=0;" parent="1" source="H4Sd22goury7XWFfZhdw-142" edge="1">
          <mxGeometry width="50" height="50" relative="1" as="geometry">
            <mxPoint x="540" y="380" as="sourcePoint" />
            <mxPoint x="540" y="350" as="targetPoint" />
          </mxGeometry>
        </mxCell>
        <mxCell id="H4Sd22goury7XWFfZhdw-141" value="&lt;font style=&quot;font-size: 5px;&quot;&gt;felsegíted&lt;/font&gt;" style="whiteSpace=wrap;html=1;fontSize=9;" parent="1" vertex="1">
          <mxGeometry x="510" y="380" width="26" height="10" as="geometry" />
        </mxCell>
        <mxCell id="H4Sd22goury7XWFfZhdw-142" value="&lt;font style=&quot;font-size: 5px;&quot;&gt;nem segíted fel&lt;/font&gt;" style="whiteSpace=wrap;html=1;fontSize=9;" parent="1" vertex="1">
          <mxGeometry x="538" y="380" width="42" height="10" as="geometry" />
        </mxCell>
        <mxCell id="H4Sd22goury7XWFfZhdw-143" value="" style="endArrow=none;html=1;rounded=0;" parent="1" edge="1">
          <mxGeometry width="50" height="50" relative="1" as="geometry">
            <mxPoint x="602" y="350" as="sourcePoint" />
            <mxPoint x="660" y="350" as="targetPoint" />
          </mxGeometry>
        </mxCell>
        <mxCell id="H4Sd22goury7XWFfZhdw-144" value="" style="endArrow=none;html=1;rounded=0;" parent="1" edge="1">
          <mxGeometry width="50" height="50" relative="1" as="geometry">
            <mxPoint x="602" y="380" as="sourcePoint" />
            <mxPoint x="602" y="350" as="targetPoint" />
          </mxGeometry>
        </mxCell>
        <mxCell id="H4Sd22goury7XWFfZhdw-146" value="&lt;span style=&quot;font-size: 5px;&quot;&gt;bocsánatot kérsz&lt;/span&gt;" style="whiteSpace=wrap;html=1;fontSize=9;" parent="1" vertex="1">
          <mxGeometry x="590" y="380" width="40" height="10" as="geometry" />
        </mxCell>
        <mxCell id="H4Sd22goury7XWFfZhdw-147" value="&lt;span style=&quot;font-size: 5px;&quot;&gt;nem kérsz bocsánatot&lt;/span&gt;" style="whiteSpace=wrap;html=1;fontSize=9;fillColor=#f8cecc;strokeColor=#b85450;" parent="1" vertex="1">
          <mxGeometry x="640" y="380" width="60" height="10" as="geometry" />
        </mxCell>
        <mxCell id="H4Sd22goury7XWFfZhdw-148" value="" style="endArrow=none;html=1;rounded=0;entryX=0.5;entryY=1;entryDx=0;entryDy=0;" parent="1" edge="1">
          <mxGeometry width="50" height="50" relative="1" as="geometry">
            <mxPoint x="610.92" y="350" as="sourcePoint" />
            <mxPoint x="610.92" y="340" as="targetPoint" />
          </mxGeometry>
        </mxCell>
        <mxCell id="H4Sd22goury7XWFfZhdw-149" value="" style="endArrow=none;html=1;rounded=0;" parent="1" edge="1">
          <mxGeometry width="50" height="50" relative="1" as="geometry">
            <mxPoint x="660" y="380" as="sourcePoint" />
            <mxPoint x="660" y="350" as="targetPoint" />
          </mxGeometry>
        </mxCell>
        <mxCell id="H4Sd22goury7XWFfZhdw-150" value="" style="endArrow=none;html=1;rounded=0;" parent="1" edge="1">
          <mxGeometry width="50" height="50" relative="1" as="geometry">
            <mxPoint x="519" y="403" as="sourcePoint" />
            <mxPoint x="519" y="390" as="targetPoint" />
          </mxGeometry>
        </mxCell>
        <mxCell id="H4Sd22goury7XWFfZhdw-151" value="" style="endArrow=none;html=1;rounded=0;" parent="1" edge="1">
          <mxGeometry width="50" height="50" relative="1" as="geometry">
            <mxPoint x="567" y="403" as="sourcePoint" />
            <mxPoint x="567" y="390" as="targetPoint" />
          </mxGeometry>
        </mxCell>
        <mxCell id="H4Sd22goury7XWFfZhdw-152" value="" style="endArrow=none;html=1;rounded=0;" parent="1" edge="1">
          <mxGeometry width="50" height="50" relative="1" as="geometry">
            <mxPoint x="612" y="403" as="sourcePoint" />
            <mxPoint x="612" y="390" as="targetPoint" />
          </mxGeometry>
        </mxCell>
        <mxCell id="H4Sd22goury7XWFfZhdw-154" value="" style="endArrow=none;html=1;rounded=0;" parent="1" edge="1">
          <mxGeometry width="50" height="50" relative="1" as="geometry">
            <mxPoint x="519" y="403" as="sourcePoint" />
            <mxPoint x="613" y="403" as="targetPoint" />
          </mxGeometry>
        </mxCell>
        <mxCell id="H4Sd22goury7XWFfZhdw-155" value="" style="endArrow=none;html=1;rounded=0;" parent="1" edge="1">
          <mxGeometry width="50" height="50" relative="1" as="geometry">
            <mxPoint x="400" y="420" as="sourcePoint" />
            <mxPoint x="587" y="403" as="targetPoint" />
            <Array as="points">
              <mxPoint x="587" y="420" />
            </Array>
          </mxGeometry>
        </mxCell>
        <mxCell id="H4Sd22goury7XWFfZhdw-156" value="" style="endArrow=none;html=1;rounded=0;" parent="1" edge="1">
          <mxGeometry width="50" height="50" relative="1" as="geometry">
            <mxPoint x="400" y="420" as="sourcePoint" />
            <mxPoint x="230" y="282" as="targetPoint" />
            <Array as="points">
              <mxPoint x="230" y="420" />
            </Array>
          </mxGeometry>
        </mxCell>
        <mxCell id="H4Sd22goury7XWFfZhdw-157" value="" style="endArrow=none;html=1;rounded=0;" parent="1" edge="1">
          <mxGeometry width="50" height="50" relative="1" as="geometry">
            <mxPoint x="400" y="460" as="sourcePoint" />
            <mxPoint x="400" y="420" as="targetPoint" />
          </mxGeometry>
        </mxCell>
        <mxCell id="H4Sd22goury7XWFfZhdw-158" value="szerencsekerék" style="rounded=0;whiteSpace=wrap;html=1;" parent="1" vertex="1">
          <mxGeometry x="354" y="460" width="94" height="20" as="geometry" />
        </mxCell>
        <mxCell id="H4Sd22goury7XWFfZhdw-160" value="&lt;p style=&quot;line-height: 60%;&quot;&gt;&lt;span style=&quot;font-size: 8px;&quot;&gt;beállsz játszani&lt;/span&gt;&lt;/p&gt;" style="rounded=0;whiteSpace=wrap;html=1;" parent="1" vertex="1">
          <mxGeometry x="341" y="510" width="50" height="20" as="geometry" />
        </mxCell>
        <mxCell id="H4Sd22goury7XWFfZhdw-161" value="&lt;p style=&quot;line-height: 60%;&quot;&gt;&lt;span style=&quot;font-size: 8px;&quot;&gt;kihagyod&lt;/span&gt;&lt;/p&gt;" style="rounded=0;whiteSpace=wrap;html=1;" parent="1" vertex="1">
          <mxGeometry x="411" y="510" width="50" height="20" as="geometry" />
        </mxCell>
        <mxCell id="H4Sd22goury7XWFfZhdw-162" value="" style="endArrow=none;html=1;rounded=0;" parent="1" edge="1">
          <mxGeometry width="50" height="50" relative="1" as="geometry">
            <mxPoint x="371" y="500" as="sourcePoint" />
            <mxPoint x="431" y="500" as="targetPoint" />
          </mxGeometry>
        </mxCell>
        <mxCell id="H4Sd22goury7XWFfZhdw-163" value="" style="endArrow=none;html=1;rounded=0;exitX=0.6;exitY=0.02;exitDx=0;exitDy=0;exitPerimeter=0;" parent="1" source="H4Sd22goury7XWFfZhdw-160" edge="1">
          <mxGeometry width="50" height="50" relative="1" as="geometry">
            <mxPoint x="321" y="550" as="sourcePoint" />
            <mxPoint x="371" y="500" as="targetPoint" />
          </mxGeometry>
        </mxCell>
        <mxCell id="H4Sd22goury7XWFfZhdw-164" value="" style="endArrow=none;html=1;rounded=0;exitX=0.6;exitY=0.02;exitDx=0;exitDy=0;exitPerimeter=0;" parent="1" edge="1">
          <mxGeometry width="50" height="50" relative="1" as="geometry">
            <mxPoint x="431" y="510" as="sourcePoint" />
            <mxPoint x="431" y="500" as="targetPoint" />
          </mxGeometry>
        </mxCell>
        <mxCell id="H4Sd22goury7XWFfZhdw-165" value="" style="endArrow=none;html=1;rounded=0;" parent="1" edge="1">
          <mxGeometry width="50" height="50" relative="1" as="geometry">
            <mxPoint x="400.82" y="499" as="sourcePoint" />
            <mxPoint x="400.82" y="480" as="targetPoint" />
          </mxGeometry>
        </mxCell>
        <mxCell id="H4Sd22goury7XWFfZhdw-166" value="" style="endArrow=none;html=1;rounded=0;exitX=0.315;exitY=0.058;exitDx=0;exitDy=0;exitPerimeter=0;" parent="1" source="H4Sd22goury7XWFfZhdw-167" edge="1">
          <mxGeometry width="50" height="50" relative="1" as="geometry">
            <mxPoint x="440" y="550" as="sourcePoint" />
            <mxPoint x="440" y="530" as="targetPoint" />
          </mxGeometry>
        </mxCell>
        <mxCell id="H4Sd22goury7XWFfZhdw-167" value="&lt;p style=&quot;line-height: 60%;&quot;&gt;&lt;span style=&quot;font-size: 8px;&quot;&gt;aranypénz a földön&lt;/span&gt;&lt;/p&gt;" style="rounded=0;whiteSpace=wrap;html=1;" parent="1" vertex="1">
          <mxGeometry x="425" y="560" width="50" height="30" as="geometry" />
        </mxCell>
        <mxCell id="H4Sd22goury7XWFfZhdw-168" value="" style="endArrow=none;html=1;rounded=0;" parent="1" edge="1">
          <mxGeometry width="50" height="50" relative="1" as="geometry">
            <mxPoint x="353.83" y="549" as="sourcePoint" />
            <mxPoint x="353.83" y="530" as="targetPoint" />
          </mxGeometry>
        </mxCell>
        <mxCell id="H4Sd22goury7XWFfZhdw-169" value="&lt;p style=&quot;line-height: 60%;&quot;&gt;&lt;span style=&quot;font-size: 8px;&quot;&gt;kevés pénz veszteség&lt;/span&gt;&lt;/p&gt;" style="rounded=0;whiteSpace=wrap;html=1;" parent="1" vertex="1">
          <mxGeometry x="294" y="560" width="50" height="30" as="geometry" />
        </mxCell>
        <mxCell id="H4Sd22goury7XWFfZhdw-170" value="&lt;p style=&quot;line-height: 60%;&quot;&gt;&lt;span style=&quot;font-size: 8px;&quot;&gt;összes pénzed elveszíted&lt;/span&gt;&lt;/p&gt;" style="rounded=0;whiteSpace=wrap;html=1;" parent="1" vertex="1">
          <mxGeometry x="364" y="560" width="46" height="30" as="geometry" />
        </mxCell>
        <mxCell id="H4Sd22goury7XWFfZhdw-171" value="" style="endArrow=none;html=1;rounded=0;" parent="1" edge="1">
          <mxGeometry width="50" height="50" relative="1" as="geometry">
            <mxPoint x="324" y="550" as="sourcePoint" />
            <mxPoint x="384" y="550" as="targetPoint" />
          </mxGeometry>
        </mxCell>
        <mxCell id="H4Sd22goury7XWFfZhdw-172" value="" style="endArrow=none;html=1;rounded=0;exitX=0.6;exitY=0.02;exitDx=0;exitDy=0;exitPerimeter=0;" parent="1" source="H4Sd22goury7XWFfZhdw-169" edge="1">
          <mxGeometry width="50" height="50" relative="1" as="geometry">
            <mxPoint x="274" y="600" as="sourcePoint" />
            <mxPoint x="324" y="550" as="targetPoint" />
          </mxGeometry>
        </mxCell>
        <mxCell id="H4Sd22goury7XWFfZhdw-173" value="" style="endArrow=none;html=1;rounded=0;exitX=0.6;exitY=0.02;exitDx=0;exitDy=0;exitPerimeter=0;" parent="1" edge="1">
          <mxGeometry width="50" height="50" relative="1" as="geometry">
            <mxPoint x="384" y="560" as="sourcePoint" />
            <mxPoint x="384" y="550" as="targetPoint" />
          </mxGeometry>
        </mxCell>
        <mxCell id="H4Sd22goury7XWFfZhdw-174" value="" style="endArrow=none;html=1;rounded=0;" parent="1" edge="1">
          <mxGeometry width="50" height="50" relative="1" as="geometry">
            <mxPoint x="318.88" y="609" as="sourcePoint" />
            <mxPoint x="318.88" y="590" as="targetPoint" />
          </mxGeometry>
        </mxCell>
        <mxCell id="H4Sd22goury7XWFfZhdw-175" value="" style="endArrow=none;html=1;rounded=0;" parent="1" edge="1">
          <mxGeometry width="50" height="50" relative="1" as="geometry">
            <mxPoint x="386.88" y="609" as="sourcePoint" />
            <mxPoint x="386.88" y="590" as="targetPoint" />
          </mxGeometry>
        </mxCell>
        <mxCell id="H4Sd22goury7XWFfZhdw-176" value="" style="endArrow=none;html=1;rounded=0;" parent="1" edge="1">
          <mxGeometry width="50" height="50" relative="1" as="geometry">
            <mxPoint x="449.88" y="609" as="sourcePoint" />
            <mxPoint x="449.88" y="590" as="targetPoint" />
          </mxGeometry>
        </mxCell>
        <mxCell id="H4Sd22goury7XWFfZhdw-177" value="" style="endArrow=none;html=1;rounded=0;" parent="1" edge="1">
          <mxGeometry width="50" height="50" relative="1" as="geometry">
            <mxPoint x="320" y="610" as="sourcePoint" />
            <mxPoint x="450" y="610" as="targetPoint" />
          </mxGeometry>
        </mxCell>
        <mxCell id="H4Sd22goury7XWFfZhdw-178" value="" style="endArrow=none;html=1;rounded=0;" parent="1" edge="1">
          <mxGeometry width="50" height="50" relative="1" as="geometry">
            <mxPoint x="400.71" y="640" as="sourcePoint" />
            <mxPoint x="400.71" y="610" as="targetPoint" />
          </mxGeometry>
        </mxCell>
        <mxCell id="H4Sd22goury7XWFfZhdw-179" value="Kastély" style="rounded=0;whiteSpace=wrap;html=1;" parent="1" vertex="1">
          <mxGeometry x="361" y="640" width="79" height="20" as="geometry" />
        </mxCell>
        <mxCell id="H4Sd22goury7XWFfZhdw-181" value="" style="endArrow=none;html=1;rounded=0;" parent="1" edge="1">
          <mxGeometry width="50" height="50" relative="1" as="geometry">
            <mxPoint x="400" y="679" as="sourcePoint" />
            <mxPoint x="400" y="660" as="targetPoint" />
          </mxGeometry>
        </mxCell>
        <mxCell id="H4Sd22goury7XWFfZhdw-182" value="" style="endArrow=none;html=1;rounded=0;" parent="1" edge="1">
          <mxGeometry width="50" height="50" relative="1" as="geometry">
            <mxPoint x="303.6" y="740" as="sourcePoint" />
            <mxPoint x="363.6" y="740" as="targetPoint" />
          </mxGeometry>
        </mxCell>
        <mxCell id="H4Sd22goury7XWFfZhdw-183" value="" style="endArrow=none;html=1;rounded=0;exitX=0.6;exitY=0.02;exitDx=0;exitDy=0;exitPerimeter=0;" parent="1" edge="1">
          <mxGeometry width="50" height="50" relative="1" as="geometry">
            <mxPoint x="303.6" y="750" as="sourcePoint" />
            <mxPoint x="303.6" y="740" as="targetPoint" />
          </mxGeometry>
        </mxCell>
        <mxCell id="H4Sd22goury7XWFfZhdw-184" value="" style="endArrow=none;html=1;rounded=0;exitX=0.6;exitY=0.02;exitDx=0;exitDy=0;exitPerimeter=0;" parent="1" edge="1">
          <mxGeometry width="50" height="50" relative="1" as="geometry">
            <mxPoint x="363.6" y="750" as="sourcePoint" />
            <mxPoint x="363.6" y="740" as="targetPoint" />
          </mxGeometry>
        </mxCell>
        <mxCell id="H4Sd22goury7XWFfZhdw-185" value="belépsz a kastélyba" style="rounded=0;whiteSpace=wrap;html=1;fontSize=10;" parent="1" vertex="1">
          <mxGeometry x="290" y="690" width="94" height="20" as="geometry" />
        </mxCell>
        <mxCell id="H4Sd22goury7XWFfZhdw-186" value="nem lépsz be a kastélyba" style="rounded=0;whiteSpace=wrap;html=1;fontSize=10;" parent="1" vertex="1">
          <mxGeometry x="410" y="690" width="120" height="20" as="geometry" />
        </mxCell>
        <mxCell id="H4Sd22goury7XWFfZhdw-187" value="" style="endArrow=none;html=1;rounded=0;exitX=0.071;exitY=-0.02;exitDx=0;exitDy=0;exitPerimeter=0;" parent="1" source="H4Sd22goury7XWFfZhdw-189" edge="1">
          <mxGeometry width="50" height="50" relative="1" as="geometry">
            <mxPoint x="518" y="740" as="sourcePoint" />
            <mxPoint x="518" y="710" as="targetPoint" />
          </mxGeometry>
        </mxCell>
        <mxCell id="H4Sd22goury7XWFfZhdw-188" value="" style="endArrow=none;html=1;rounded=0;" parent="1" edge="1">
          <mxGeometry width="50" height="50" relative="1" as="geometry">
            <mxPoint x="333.6" y="740" as="sourcePoint" />
            <mxPoint x="333.6" y="710" as="targetPoint" />
          </mxGeometry>
        </mxCell>
        <mxCell id="H4Sd22goury7XWFfZhdw-189" value="&lt;font style=&quot;font-size: 8px;&quot;&gt;Elvesztetted a játékot:&amp;nbsp;&lt;br&gt;Játék vége!&lt;br&gt;&lt;/font&gt;" style="rounded=0;whiteSpace=wrap;html=1;fontSize=10;fillColor=#f8cecc;strokeColor=#b85450;" parent="1" vertex="1">
          <mxGeometry x="512" y="800" width="88" height="30" as="geometry" />
        </mxCell>
        <mxCell id="H4Sd22goury7XWFfZhdw-191" value="" style="endArrow=none;html=1;rounded=0;" parent="1" edge="1">
          <mxGeometry width="50" height="50" relative="1" as="geometry">
            <mxPoint x="370.36" y="680" as="sourcePoint" />
            <mxPoint x="430.36" y="680" as="targetPoint" />
          </mxGeometry>
        </mxCell>
        <mxCell id="H4Sd22goury7XWFfZhdw-192" value="" style="endArrow=none;html=1;rounded=0;exitX=0.6;exitY=0.02;exitDx=0;exitDy=0;exitPerimeter=0;" parent="1" edge="1">
          <mxGeometry width="50" height="50" relative="1" as="geometry">
            <mxPoint x="370.36" y="690" as="sourcePoint" />
            <mxPoint x="370.36" y="680" as="targetPoint" />
          </mxGeometry>
        </mxCell>
        <mxCell id="H4Sd22goury7XWFfZhdw-193" value="" style="endArrow=none;html=1;rounded=0;exitX=0.6;exitY=0.02;exitDx=0;exitDy=0;exitPerimeter=0;" parent="1" edge="1">
          <mxGeometry width="50" height="50" relative="1" as="geometry">
            <mxPoint x="430.36" y="690" as="sourcePoint" />
            <mxPoint x="430.36" y="680" as="targetPoint" />
          </mxGeometry>
        </mxCell>
        <mxCell id="H4Sd22goury7XWFfZhdw-194" value="&lt;font style=&quot;font-size: 8px;&quot;&gt;van pénzed jegyre&lt;/font&gt;" style="rounded=0;whiteSpace=wrap;html=1;fontSize=10;" parent="1" vertex="1">
          <mxGeometry x="240" y="750" width="77" height="10" as="geometry" />
        </mxCell>
        <mxCell id="H4Sd22goury7XWFfZhdw-195" value="&lt;font style=&quot;font-size: 8px;&quot;&gt;nincs pénzed jegyre&lt;/font&gt;" style="rounded=0;whiteSpace=wrap;html=1;fontSize=10;" parent="1" vertex="1">
          <mxGeometry x="333" y="750" width="77" height="10" as="geometry" />
        </mxCell>
        <mxCell id="H4Sd22goury7XWFfZhdw-197" value="&lt;font style=&quot;font-size: 6px;&quot;&gt;Megvetted a jegyet, sikeresen folytathatod tovább utadat a kastélyban. Játék megnyerv&lt;/font&gt;&lt;font style=&quot;font-size: 6px;&quot;&gt;e!&lt;/font&gt;" style="rounded=0;whiteSpace=wrap;html=1;fontSize=10;fillColor=#d5e8d4;strokeColor=#82b366;" parent="1" vertex="1">
          <mxGeometry x="53" y="800" width="100" height="40" as="geometry" />
        </mxCell>
        <mxCell id="H4Sd22goury7XWFfZhdw-198" value="&lt;p style=&quot;line-height: 140%; font-size: 3px;&quot;&gt;&lt;font style=&quot;font-size: 3px;&quot;&gt;anyja rádhívja az őröket:&lt;br&gt;&amp;nbsp;játék vége&lt;/font&gt;&lt;/p&gt;" style="text;html=1;align=center;verticalAlign=middle;resizable=0;points=[];autosize=1;strokeColor=none;fillColor=none;" parent="1" vertex="1">
          <mxGeometry x="642" y="382" width="60" height="30" as="geometry" />
        </mxCell>
        <mxCell id="H4Sd22goury7XWFfZhdw-199" value="&lt;p style=&quot;line-height: 80%; font-size: 3px;&quot;&gt;elrepít varázsországba,&lt;/p&gt;&lt;p style=&quot;line-height: 80%; font-size: 3px;&quot;&gt;soha nem térsz vissza:&lt;/p&gt;&lt;p style=&quot;line-height: 80%; font-size: 3px;&quot;&gt;Játék vége!&lt;/p&gt;" style="text;html=1;align=center;verticalAlign=middle;resizable=0;points=[];autosize=1;strokeColor=none;fillColor=none;opacity=60;" parent="1" vertex="1">
          <mxGeometry x="127" y="265" width="50" height="30" as="geometry" />
        </mxCell>
        <mxCell id="H4Sd22goury7XWFfZhdw-200" value="" style="endArrow=none;html=1;rounded=0;" parent="1" edge="1">
          <mxGeometry width="50" height="50" relative="1" as="geometry">
            <mxPoint x="114" y="790" as="sourcePoint" />
            <mxPoint x="233" y="790" as="targetPoint" />
          </mxGeometry>
        </mxCell>
        <mxCell id="H4Sd22goury7XWFfZhdw-201" value="" style="endArrow=none;html=1;rounded=0;exitX=0.6;exitY=0.02;exitDx=0;exitDy=0;exitPerimeter=0;" parent="1" edge="1">
          <mxGeometry width="50" height="50" relative="1" as="geometry">
            <mxPoint x="114.00000000000003" y="800" as="sourcePoint" />
            <mxPoint x="114.00000000000003" y="790" as="targetPoint" />
          </mxGeometry>
        </mxCell>
        <mxCell id="H4Sd22goury7XWFfZhdw-202" value="" style="endArrow=none;html=1;rounded=0;exitX=0.6;exitY=0.02;exitDx=0;exitDy=0;exitPerimeter=0;" parent="1" edge="1">
          <mxGeometry width="50" height="50" relative="1" as="geometry">
            <mxPoint x="233" y="800" as="sourcePoint" />
            <mxPoint x="233" y="790" as="targetPoint" />
          </mxGeometry>
        </mxCell>
        <mxCell id="H4Sd22goury7XWFfZhdw-203" value="" style="endArrow=none;html=1;rounded=0;" parent="1" edge="1">
          <mxGeometry width="50" height="50" relative="1" as="geometry">
            <mxPoint x="203" y="790" as="sourcePoint" />
            <mxPoint x="279" y="761" as="targetPoint" />
            <Array as="points">
              <mxPoint x="203" y="770" />
              <mxPoint x="279" y="770" />
            </Array>
          </mxGeometry>
        </mxCell>
        <mxCell id="H4Sd22goury7XWFfZhdw-204" value="&lt;span style=&quot;font-size: 7px;&quot;&gt;Megvetted a jegyet, viszont kiesett a kezedből és soha nem találtad meg.&lt;br&gt;Játék vége!&lt;br&gt;&lt;/span&gt;" style="rounded=0;whiteSpace=wrap;html=1;fontSize=10;fillColor=#f8cecc;strokeColor=#b85450;" parent="1" vertex="1">
          <mxGeometry x="159" y="800" width="120" height="40" as="geometry" />
        </mxCell>
        <mxCell id="H4Sd22goury7XWFfZhdw-205" value="" style="endArrow=none;html=1;rounded=0;" parent="1" edge="1">
          <mxGeometry width="50" height="50" relative="1" as="geometry">
            <mxPoint x="379" y="780" as="sourcePoint" />
            <mxPoint x="379" y="760" as="targetPoint" />
          </mxGeometry>
        </mxCell>
        <mxCell id="H4Sd22goury7XWFfZhdw-206" value="" style="endArrow=none;html=1;rounded=0;" parent="1" edge="1">
          <mxGeometry width="50" height="50" relative="1" as="geometry">
            <mxPoint x="351" y="780" as="sourcePoint" />
            <mxPoint x="411" y="780" as="targetPoint" />
          </mxGeometry>
        </mxCell>
        <mxCell id="H4Sd22goury7XWFfZhdw-207" value="" style="endArrow=none;html=1;rounded=0;exitX=0.592;exitY=-0.037;exitDx=0;exitDy=0;exitPerimeter=0;" parent="1" source="H4Sd22goury7XWFfZhdw-210" edge="1">
          <mxGeometry width="50" height="50" relative="1" as="geometry">
            <mxPoint x="352" y="790" as="sourcePoint" />
            <mxPoint x="352" y="780" as="targetPoint" />
          </mxGeometry>
        </mxCell>
        <mxCell id="H4Sd22goury7XWFfZhdw-208" value="" style="endArrow=none;html=1;rounded=0;" parent="1" edge="1">
          <mxGeometry width="50" height="50" relative="1" as="geometry">
            <mxPoint x="411" y="800" as="sourcePoint" />
            <mxPoint x="411" y="780" as="targetPoint" />
          </mxGeometry>
        </mxCell>
        <mxCell id="H4Sd22goury7XWFfZhdw-209" value="&lt;span style=&quot;font-size: 6px;&quot;&gt;Az őrök eltávolítottak a kastélyból.&lt;br&gt;Elvesztetted a játékot:&lt;br&gt;Játék vége!&lt;br&gt;&lt;/span&gt;" style="rounded=0;whiteSpace=wrap;html=1;fontSize=10;fillColor=#f8cecc;strokeColor=#b85450;" parent="1" vertex="1">
          <mxGeometry x="407" y="800" width="99" height="40" as="geometry" />
        </mxCell>
        <mxCell id="H4Sd22goury7XWFfZhdw-210" value="&lt;span style=&quot;font-size: 6px;&quot;&gt;Egy kedves ember vett neked egy jegyet, folytathatod tovább utadat a kastélyban:&amp;nbsp;&lt;br&gt;Játék megnyerve!&lt;br&gt;&lt;/span&gt;" style="rounded=0;whiteSpace=wrap;html=1;fontSize=10;fillColor=#d5e8d4;strokeColor=#82b366;" parent="1" vertex="1">
          <mxGeometry x="283" y="800" width="117" height="40" as="geometry" />
        </mxCell>
        <mxCell id="kmwpdBU3YhgM5EoUqHl3-1" value="" style="endArrow=none;html=1;rounded=0;" edge="1" parent="1">
          <mxGeometry width="50" height="50" relative="1" as="geometry">
            <mxPoint x="368.3" y="170" as="sourcePoint" />
            <mxPoint x="428.3" y="170" as="targetPoint" />
          </mxGeometry>
        </mxCell>
        <mxCell id="kmwpdBU3YhgM5EoUqHl3-2" value="" style="endArrow=none;html=1;rounded=0;exitX=0.6;exitY=0.02;exitDx=0;exitDy=0;exitPerimeter=0;" edge="1" parent="1">
          <mxGeometry width="50" height="50" relative="1" as="geometry">
            <mxPoint x="368.3" y="180" as="sourcePoint" />
            <mxPoint x="368.3" y="170" as="targetPoint" />
          </mxGeometry>
        </mxCell>
        <mxCell id="kmwpdBU3YhgM5EoUqHl3-3" value="" style="endArrow=none;html=1;rounded=0;exitX=0.6;exitY=0.02;exitDx=0;exitDy=0;exitPerimeter=0;" edge="1" parent="1">
          <mxGeometry width="50" height="50" relative="1" as="geometry">
            <mxPoint x="428.3" y="180" as="sourcePoint" />
            <mxPoint x="428.3" y="170" as="targetPoint" />
          </mxGeometry>
        </mxCell>
        <mxCell id="kmwpdBU3YhgM5EoUqHl3-4" value="" style="endArrow=none;html=1;rounded=0;exitX=0.6;exitY=0.02;exitDx=0;exitDy=0;exitPerimeter=0;" edge="1" parent="1">
          <mxGeometry width="50" height="50" relative="1" as="geometry">
            <mxPoint x="399.3" y="180" as="sourcePoint" />
            <mxPoint x="399.3" y="170" as="targetPoint" />
          </mxGeometry>
        </mxCell>
        <mxCell id="kmwpdBU3YhgM5EoUqHl3-5" value="&lt;span style=&quot;font-size: 7px;&quot;&gt;pocsolya&lt;/span&gt;" style="rounded=0;whiteSpace=wrap;html=1;" vertex="1" parent="1">
          <mxGeometry x="340" y="181" width="38.5" height="10" as="geometry" />
        </mxCell>
        <mxCell id="kmwpdBU3YhgM5EoUqHl3-6" value="&lt;font style=&quot;font-size: 7px;&quot;&gt;megbotlás&lt;/font&gt;" style="rounded=0;whiteSpace=wrap;html=1;" vertex="1" parent="1">
          <mxGeometry x="383" y="181" width="33.5" height="10" as="geometry" />
        </mxCell>
        <mxCell id="kmwpdBU3YhgM5EoUqHl3-7" value="&lt;span style=&quot;font-size: 7px;&quot;&gt;elesés&lt;/span&gt;" style="rounded=0;whiteSpace=wrap;html=1;" vertex="1" parent="1">
          <mxGeometry x="421.5" y="181" width="31" height="10" as="geometry" />
        </mxCell>
        <mxCell id="kmwpdBU3YhgM5EoUqHl3-8" value="" style="endArrow=none;html=1;rounded=0;" edge="1" parent="1">
          <mxGeometry width="50" height="50" relative="1" as="geometry">
            <mxPoint x="399.5" y="204" as="sourcePoint" />
            <mxPoint x="399.5" y="191" as="targetPoint" />
          </mxGeometry>
        </mxCell>
        <mxCell id="kmwpdBU3YhgM5EoUqHl3-9" value="" style="endArrow=none;html=1;rounded=0;" edge="1" parent="1">
          <mxGeometry width="50" height="50" relative="1" as="geometry">
            <mxPoint x="428.5" y="204" as="sourcePoint" />
            <mxPoint x="428.5" y="191" as="targetPoint" />
          </mxGeometry>
        </mxCell>
        <mxCell id="kmwpdBU3YhgM5EoUqHl3-10" value="" style="endArrow=none;html=1;rounded=0;" edge="1" parent="1">
          <mxGeometry width="50" height="50" relative="1" as="geometry">
            <mxPoint x="369" y="204" as="sourcePoint" />
            <mxPoint x="369" y="191" as="targetPoint" />
          </mxGeometry>
        </mxCell>
        <mxCell id="kmwpdBU3YhgM5EoUqHl3-11" value="" style="endArrow=none;html=1;rounded=0;" edge="1" parent="1">
          <mxGeometry width="50" height="50" relative="1" as="geometry">
            <mxPoint x="369" y="204" as="sourcePoint" />
            <mxPoint x="429" y="204" as="targetPoint" />
          </mxGeometry>
        </mxCell>
        <mxCell id="kmwpdBU3YhgM5EoUqHl3-12" value="" style="endArrow=none;html=1;rounded=0;" edge="1" parent="1">
          <mxGeometry width="50" height="50" relative="1" as="geometry">
            <mxPoint x="400" y="220" as="sourcePoint" />
            <mxPoint x="399.5" y="204" as="targetPoint" />
          </mxGeometry>
        </mxCell>
      </root>
    </mxGraphModel>
  </diagram>
</mxfile>
